<?xml version="1.0" encoding="utf-8"?>
<!-- Generator: Adobe Illustrator 17.1.0, SVG Export Plug-In . SVG Version: 6.00 Build 0)  -->
<!DOCTYPE svg PUBLIC "-//W3C//DTD SVG 1.1//EN" "http://www.w3.org/Graphics/SVG/1.1/DTD/svg11.dtd">
<svg version="1.1" id="Layer_1" xmlns="http://www.w3.org/2000/svg" xmlns:xlink="http://www.w3.org/1999/xlink" x="0px" y="0px"
	 width="180px" height="90px" viewBox="0 0 180 90" enable-background="new 0 0 180 90" xml:space="preserve">
<g>
	<rect x="0" y="0" fill="#B20C3B" width="90" height="90"/>
	<g>
		<path fill="#F2EFE9" d="M56.8,68l-3.6-10.2H36.4L32.8,68H23l17.5-45.8h8.9L66.8,68H56.8z M47.1,40.8c-0.9-2.7-1.8-5.4-2.3-7.1
			c-0.5,1.7-1.4,4.4-2.3,7.1l-2.9,8.3H50L47.1,40.8z"/>
	</g>
	<g>
		<path fill="#DC8C22" d="M21.1,46.4c-0.2,0.6-0.9,1-1.6,0.8L6.8,42.9c-0.6-0.2-1-0.9-0.8-1.6l1.1-3.2c0.2-0.6,0.9-1,1.6-0.8
			l12.8,4.3c0.6,0.2,1,0.9,0.8,1.6L21.1,46.4z"/>
		<path fill="#DC8C22" d="M20.4,56.4c0.2,0.6-0.1,1.3-0.8,1.6l-9.1,3.2C9.9,61.4,9.2,61,9,60.4L8,57.2c-0.2-0.6,0.1-1.3,0.8-1.6
			l9.1-3.2c0.6-0.2,1.3,0.1,1.6,0.8L20.4,56.4z"/>
		<path fill="#DC8C22" d="M17.9,27.2c-0.5,0.4-0.6,1.2-0.2,1.7l5.8,7.7c0.4,0.5,1.2,0.6,1.7,0.2l2.6-2c0.5-0.4,0.6-1.2,0.2-1.7
			l-5.8-7.7c-0.4-0.5-1.2-0.6-1.7-0.2L17.9,27.2z"/>
		<path fill="#DC8C22" d="M68.6,46.4c0.2,0.6,0.9,1,1.6,0.8L83,42.9c0.6-0.2,1-0.9,0.8-1.6l-1.1-3.2c-0.2-0.6-0.9-1-1.6-0.8
			l-12.8,4.3c-0.6,0.2-1,0.9-0.8,1.6L68.6,46.4z"/>
		<path fill="#DC8C22" d="M69.3,56.4c-0.2,0.6,0.1,1.3,0.8,1.6l9.1,3.2c0.6,0.2,1.3-0.1,1.6-0.8l1.1-3.2c0.2-0.6-0.1-1.3-0.8-1.6
			l-9.1-3.2c-0.6-0.2-1.3,0.1-1.6,0.8L69.3,56.4z"/>
		<path fill="#DC8C22" d="M71.8,27.2c0.5,0.4,0.6,1.2,0.2,1.7l-5.8,7.7c-0.4,0.5-1.2,0.6-1.7,0.2l-2.6-2c-0.5-0.4-0.6-1.2-0.2-1.7
			l5.8-7.7c0.4-0.5,1.2-0.6,1.7-0.2L71.8,27.2z"/>
	</g>
	<rect x="90" y="0" fill="#333332" width="90" height="90"/>
	<g>
		<path fill="#FFFFFF" d="M122,17.5c0-0.2,0-0.5,0-0.9l0-0.3c0-0.2,0-0.3,0-0.4c0-0.4,0-0.8,0-0.9c0-0.1,0.1-0.1,0.4-0.2l0.1,0v-0.3
			l-0.1,0c-0.2,0-0.4,0-0.5,0c0,0-0.3,0-0.3,0l-0.1,0l0,0.1c0,0-0.4,0.9-0.7,1.5c-0.1,0.2-0.2,0.5-0.3,0.7c-0.1,0.1-0.1,0.3-0.2,0.4
			c-0.1-0.3-0.3-0.7-0.5-1.1c-0.3-0.6-0.7-1.5-0.7-1.5l0-0.1l-0.1,0c-0.1,0-0.2,0-0.2,0l-0.1,0c0,0-0.2,0-0.3,0c-0.1,0-0.2,0-0.3,0
			h-0.1v0.3l0.1,0c0.2,0,0.3,0.1,0.4,0.1c0.1,0,0.1,0.1,0.2,0.3c0,0.3,0,0.7,0,1.1c0,0.1,0,0.2,0,0.3c0,0.3,0,0.6,0,0.7
			c0,0.2,0,0.4-0.4,0.4l-0.1,0v0.4l0.1,0c0,0,0.3,0,0.5,0c0.3,0,0.6,0,0.7,0.1l0.1,0v-0.4l-0.1,0c-0.4-0.1-0.4-0.1-0.5-0.3
			c0-0.1,0-0.3,0-1.2c0,0,0,0,0,0v0c0,0,0-0.2,0-0.3c0.1,0.1,0.1,0.2,0.2,0.4l0.1,0.3c0,0.1,0.1,0.2,0.1,0.3
			c0.2,0.3,0.4,0.7,0.6,1.3l0,0.1h0.3l0-0.1c0.1-0.3,0.3-0.9,0.6-1.3l0.1-0.2c0.1-0.2,0.1-0.3,0.2-0.5c0.1-0.1,0.1-0.2,0.2-0.4
			c0,0.2,0,0.5,0,0.8c0,0.2,0,0.3,0,0.4c0,0.3,0,0.4,0,0.6c0,0.1-0.1,0.2-0.4,0.2l-0.1,0v0.3l0.1,0c0,0,0.4-0.1,0.6-0.1
			c0.3,0,0.6,0,0.9,0.1l0.1,0v-0.4l-0.1,0C122.1,17.7,122,17.6,122,17.5z"/>
		<path fill="#FFFFFF" d="M128.2,14.5c-0.2,0-0.6,0-0.8,0l-0.1,0v0.4l0.1,0c0.3,0,0.4,0.1,0.4,0.2c0.1,0.1,0.1,0.4,0.1,0.6
			c0,0.1,0,0.3,0,0.4c0,0.2,0,0.3,0,0.5c0,1-0.6,1.1-1,1.1c-0.4,0-1-0.1-1-1c0-0.1,0-0.2,0-0.3c0-0.1,0-0.2,0-0.4c0-0.2,0-0.4,0-0.6
			l0-0.1c0-0.3,0.1-0.3,0.5-0.4l0.1,0v-0.3l-0.1,0c-0.2,0-0.5,0-0.8,0c-0.3,0-0.7,0-0.9,0l-0.1,0v0.3l0.1,0c0.4,0.1,0.5,0.1,0.5,0.5
			v0.2c0,0.1,0,0.3,0,0.5c0,0.2,0,0.3,0,0.4c0,0.1,0,0.2,0,0.4c0,0.9,0.6,1.4,1.6,1.4c0.7,0,1.5-0.4,1.5-1.5c0-0.4,0-0.5,0-0.6
			c0-0.1,0-0.2,0-0.4c0-0.2,0-0.5,0.1-0.6c0-0.1,0.1-0.1,0.4-0.1l0.1,0v-0.4l-0.1,0C128.5,14.5,128.3,14.5,128.2,14.5z"/>
		<path fill="#FFFFFF" d="M132.5,16c-0.5-0.2-0.6-0.4-0.6-0.6c0-0.3,0.2-0.5,0.6-0.5c0.3,0,0.5,0.2,0.5,0.5l0,0.1h0.3l0-0.1
			c0,0,0-0.3,0-0.3c0-0.1,0-0.3,0-0.3v-0.1l-0.1,0c-0.3-0.1-0.5-0.2-0.8-0.2c-0.7,0-1.2,0.4-1.2,1c0,0.5,0.3,0.8,1,1.1
			c0.5,0.2,0.6,0.3,0.6,0.6c0,0.3-0.3,0.6-0.6,0.6c-0.4,0-0.6-0.2-0.7-0.6l0-0.1h-0.3l0,0.1c0,0.2,0,0.3,0,0.4c0,0.1,0,0.1,0,0.3
			l0,0.1l0.1,0c0.3,0.1,0.7,0.2,1,0.2c0.8,0,1.3-0.5,1.3-1.1C133.5,16.4,133,16.2,132.5,16z"/>
		<path fill="#FFFFFF" d="M138.5,17.1c-0.1,0.3-0.1,0.4-0.2,0.4c-0.1,0-0.4,0.1-0.7,0.1c-0.2,0-0.3,0-0.4-0.1c0,0-0.1-0.2-0.1-0.6
			v-0.5l0.3,0c0.2,0,0.4,0,0.4,0.1c0.1,0,0.1,0.2,0.2,0.3c0,0,0,0.1,0,0.1l0,0.1l0.3-0.1l0-0.1c-0.1-0.2-0.1-0.4-0.1-0.6
			c0-0.1,0-0.2,0-0.4l0-0.1H138l0,0.1c-0.1,0.2-0.1,0.3-0.2,0.3c-0.1,0-0.2,0.1-0.4,0.1h-0.3v-1.1c0,0,0.1,0,0.1,0
			c0.1,0,0.2,0,0.3,0c0.3,0,0.4,0,0.5,0.1c0.1,0.1,0.2,0.2,0.2,0.4l0,0.1h0.3l0-0.1c0-0.1,0-0.2,0-0.4c0-0.1,0-0.3,0-0.4l0-0.1
			l-0.1,0c-0.1,0-0.4,0-0.7,0h-0.1c-0.2,0-0.5,0-0.8,0c-0.4,0-0.9,0-0.9,0l-0.1,0v0.3l0.1,0c0,0,0,0,0.1,0c0.2,0,0.4,0.1,0.4,0.2
			c0,0.3,0,0.9,0,1.2c0,1.2,0,1.3,0,1.4c0,0.1-0.2,0.1-0.4,0.1l-0.1,0v0.3l0.1,0c0.3,0,0.4,0,0.7,0c0.3,0,0.6,0,0.9,0
			c0.1,0,0.2,0,0.3,0h0.8l0-0.1c0-0.2,0-0.2,0.1-0.4l0-0.2c0-0.1,0-0.1,0-0.2l0-0.1L138.5,17.1L138.5,17.1z"/>
		<path fill="#FFFFFF" d="M144.7,14.5c-0.2,0-0.6,0-0.7,0l-0.1,0v0.4l0.1,0c0.3,0,0.4,0.1,0.4,0.2c0.1,0.1,0.1,0.4,0.1,0.6
			c0,0.1,0,0.3,0,0.4c0,0.2,0,0.3,0,0.5c0,1-0.6,1.1-1,1.1c-0.4,0-1-0.1-1-1c0-0.1,0-0.2,0-0.3c0-0.1,0-0.2,0-0.4c0-0.3,0-0.5,0-0.7
			v0c0-0.3,0.1-0.3,0.5-0.4l0.1,0v-0.3l-0.1,0c-0.2,0-0.5,0-0.8,0c-0.3,0-0.7,0-0.9,0l-0.1,0v0.3l0.1,0c0.4,0.1,0.5,0.1,0.5,0.5v0.2
			c0,0.1,0,0.3,0,0.5c0,0.2,0,0.3,0,0.4c0,0.1,0,0.2,0,0.4c0,0.9,0.6,1.4,1.6,1.4c0.7,0,1.5-0.4,1.5-1.5c0-0.4,0-0.5,0-0.6
			c0-0.1,0-0.2,0-0.4c0-0.2,0-0.5,0.1-0.6c0-0.1,0.1-0.1,0.4-0.1l0.1,0v-0.4l-0.1,0C145,14.5,144.9,14.5,144.7,14.5z"/>
		<path fill="#FFFFFF" d="M152,17.7c-0.3-0.1-0.4-0.1-0.4-0.2c0-0.2,0-0.5,0-0.8l0-0.4c0-0.1,0-0.3,0-0.4c0-0.4,0-0.8,0-0.9
			c0-0.1,0.1-0.1,0.4-0.2l0.1,0v-0.3l-0.2,0c-0.2,0-0.4,0-0.5,0c0,0-0.3,0-0.3,0l-0.1,0l0,0.1c0,0-0.4,0.9-0.7,1.5
			c-0.1,0.2-0.2,0.5-0.3,0.7c-0.1,0.1-0.1,0.2-0.2,0.3c-0.1-0.3-0.3-0.7-0.5-1.1c-0.3-0.6-0.7-1.4-0.7-1.4l0-0.1l-0.1,0
			c-0.1,0-0.2,0-0.2,0l-0.1,0c0,0-0.2,0-0.3,0c-0.1,0-0.2,0-0.3,0h-0.1v0.3l0.1,0c0.2,0,0.3,0.1,0.4,0.1c0.1,0,0.1,0.1,0.2,0.3
			c0,0.3,0,0.7,0,1.1v0.3c0,0.3,0,0.6,0,0.8c0,0.2,0,0.4-0.4,0.4l-0.1,0v0.4l0.1,0c0,0,0.3,0,0.5,0c0.3,0,0.6,0,0.7,0.1l0.1,0v-0.4
			l-0.1,0c-0.4-0.1-0.4-0.1-0.5-0.3c0-0.1,0-0.3,0-1.2c0,0,0,0,0,0v0c0,0,0-0.2,0-0.3c0.1,0.1,0.1,0.2,0.2,0.4l0.1,0.3
			c0,0.1,0.1,0.2,0.1,0.3c0.2,0.3,0.4,0.7,0.6,1.3l0,0.1h0.3l0-0.1c0.1-0.3,0.4-0.9,0.6-1.3l0.1-0.2c0.1-0.2,0.1-0.3,0.2-0.5
			c0.1-0.1,0.1-0.2,0.2-0.4c0,0.2,0,0.5,0,0.8c0,0.2,0,0.3,0,0.4c0,0.3,0,0.4,0,0.6c0,0.1-0.1,0.2-0.4,0.2l-0.1,0v0.3l0.1,0
			c0,0,0.4-0.1,0.6-0.1c0.3,0,0.6,0,0.9,0.1l0.1,0v-0.4L152,17.7z"/>
	</g>
	<g>
		<path fill="#FFFFFF" d="M99.8,26.5c0.1,0.3,0.1,0.8,0.1,2.1c0,1.5,0,2.1-0.1,2.4c-0.1,0.3-0.2,0.5-1,0.6c0,0-0.1,0-0.1,0.1v0.4
			c0,0,0,0,0,0c0,0,0,0,0,0c0,0,0,0,0,0c0.5-0.1,1-0.1,1.7-0.1c0.6,0,1.3,0,1.8,0.1c0,0,0,0,0,0c0,0,0,0,0,0v-0.4c0,0,0-0.1-0.1-0.1
			c-0.7-0.1-0.9-0.2-1-0.4c-0.1-0.2-0.2-1-0.2-3.2c0-1.1,0-1.8,0-2c0.1,0,0.3,0,0.3,0c0.9,0,1.4,0.6,1.4,1.4c0,0.8-0.5,1.4-1.3,1.5
			c0,0-0.1,0-0.1,0.1v0.3c0,0,0,0.1,0.1,0.1c1,0,1.6-0.1,2-0.5c0.4-0.3,0.7-0.8,0.7-1.4c0-1.2-1-1.9-2.5-1.9c-0.2,0-0.6,0-0.9,0
			c-0.2,0-0.4,0-0.4,0c-0.6,0-0.9,0-1.2,0c-0.2,0-0.4,0-0.6,0c0,0-0.1,0-0.1,0.1v0.3c0,0,0,0.1,0.1,0.1C99.5,26,99.7,26.1,99.8,26.5
			z"/>
		<path fill="#FFFFFF" d="M113.1,32.2c0,0,0.1,0,0.3,0c0.3,0,0.6,0,0.7,0c0,0,0,0,0.1,0l0,0c0.1-0.2,0.1-0.3,0.2-0.6
			c0.2-0.5,0.4-0.9,0.5-1.1c0,0,0,0,0-0.1c0,0,0,0-0.1,0h-0.4c0,0,0,0-0.1,0c-0.3,0.5-0.6,0.8-0.9,1c-0.3,0.2-0.6,0.2-0.9,0.2
			c-0.6,0-0.8-0.1-1-0.2c-0.3-0.2-0.4-0.4-0.4-1.4c0-0.6,0-1.4,0-1.8c0-1.4,0-1.7,0.2-1.9c0.1-0.1,0.4-0.3,0.8-0.3
			c0,0,0.1,0,0.1-0.1v-0.3c0,0,0,0,0-0.1c0,0,0,0-0.1,0c-0.1,0-1.1,0-1.6,0c-0.8,0-1.2,0-1.5-0.1c-0.1,0-0.1,0-0.2,0c0,0,0,0,0,0
			c0,0,0,0,0,0v0.4c0,0,0,0.1,0.1,0.1c0.5,0.1,0.7,0.2,0.9,0.3c0.1,0.2,0.2,0.4,0.2,0.8c0,0,0,0.1,0,0.2c0,0.4,0,1.3,0,2.5
			c0,0.9,0,1.4-0.1,1.6c-0.1,0.1-0.2,0.2-0.8,0.3c0,0-0.1,0-0.1,0.1v0.3c0,0,0,0.1,0.1,0.1c0,0,0.1,0,0.1,0c0.2,0,0.7-0.1,1.2-0.1
			c0.5,0,0.9,0,1.4,0C112.1,32.1,112.6,32.2,113.1,32.2z"/>
		<path fill="#FFFFFF" d="M122.8,31.7C122.8,31.7,122.7,31.7,122.8,31.7l-0.1,0.4c0,0,0,0,0,0c0,0,0,0,0,0c0.3,0,0.9,0,1.6,0h0.3
			c0.6,0,1,0,1.4,0c0,0,0,0,0,0c0,0,0,0,0,0v-0.4c0,0,0-0.1-0.1-0.1c-0.4,0-0.6-0.1-0.7-0.3c-0.2-0.2-0.2-0.4-0.8-1.7
			c-0.2-0.4-0.4-0.9-0.6-1.6c-0.6-1.5-1.1-3-1.1-3c0,0,0,0-0.1,0c0,0,0,0-0.1,0c-0.2,0.4-0.5,0.9-0.9,0.9h0c0,0,0,0,0,0
			c0,0,0,0,0,0.1l0.1,0.2c-0.1,0.3-1.1,2.9-1.6,4.4c-0.3,0.8-0.5,1-1.2,1.1c0,0-0.1,0-0.1,0.1v0.4c0,0,0,0,0,0c0,0,0,0,0,0
			c0,0,0,0,0,0c0.1,0,0.4,0,1,0c0.7,0,1.5,0,1.7,0c0,0,0,0,0,0c0,0,0,0,0,0v-0.4c0,0,0-0.1-0.1-0.1c-0.7,0-1-0.2-1-0.5
			c0-0.2,0.4-1.4,0.5-1.6h2c0.1,0.2,0.2,0.4,0.2,0.6c0.2,0.5,0.3,0.8,0.3,1C123.8,31.4,123.6,31.6,122.8,31.7z M123,28.9h-1.4
			l0.7-1.9L123,28.9z"/>
		<path fill="#FFFFFF" d="M132.5,31.3c-0.1-0.2-0.1-0.3-0.1-1.8c0,0,0-1.3,0-2c0-0.1,0-0.2,0-0.3c0.3,0.4,1.4,1.6,2.2,2.4l0.2,0.3
			c1.2,1.3,2,2.2,2.2,2.6c0,0,0,0,0,0c0,0,0,0,0,0l0.3-0.2c0,0,0,0,0-0.1c0,0,0.1-3.7,0.1-3.9c0-1.2,0-1.6,0.1-1.8
			c0.1-0.2,0.4-0.4,1-0.4c0,0,0.1,0,0.1-0.1v-0.4c0,0,0,0,0-0.1c0,0,0,0-0.1,0c-0.1,0-1.5,0-1.6,0c-0.3,0-1.2,0-1.2,0c0,0,0,0,0,0
			c0,0,0,0,0,0c0,0,0,0,0,0v0.4c0,0,0,0.1,0,0.1c0.6,0.1,0.8,0.2,0.9,0.4c0.1,0.2,0.1,0.4,0.1,1.8l0,1.8c-0.2-0.3-0.6-0.7-1-1.1
			l-0.3-0.4c-2-2.1-2.5-2.8-2.6-3c0,0,0,0-0.1,0c-0.1,0-0.1,0-0.3,0c-0.2,0-0.5,0-0.9,0c-0.6,0-0.9,0-1,0c-0.1,0-0.2,0-0.3,0
			c0,0-0.1,0-0.1,0.1v0.4c0,0,0,0.1,0.1,0.1c0.6,0,0.9,0.2,1.3,0.5c0,0.3,0,2.5,0,3.3c0,1.2,0,1.4-0.1,1.6c-0.1,0.2-0.3,0.3-1,0.4
			c0,0-0.1,0-0.1,0.1v0.4c0,0,0,0,0,0c0,0,0,0,0,0c0.5,0,1-0.1,1.6-0.1c0.7,0,1.1,0,1.5,0.1c0,0,0,0,0,0c0,0,0,0,0,0v-0.4
			c0,0,0-0.1-0.1-0.1C133,31.6,132.6,31.5,132.5,31.3z"/>
		<path fill="#FFFFFF" d="M144,26.4c0.3,0,0.9,0,1.8,0l0,1.7c0,0,0,1,0,1.6v0.2c0,0.5,0,1.2-0.2,1.4c-0.1,0.2-0.3,0.2-0.6,0.3
			c-0.1,0-0.1,0-0.2,0c0,0,0,0,0,0.1v0.4c0,0,0,0,0,0c0,0,0,0,0,0c0.4,0,1.1-0.1,1.6-0.1c0.5,0,1.1,0,1.7,0.1h0c0,0,0,0,0,0
			c0,0,0,0,0,0v-0.4c0,0,0-0.1-0.1-0.1c-0.6-0.1-0.8-0.2-0.9-0.6c-0.1-0.3-0.1-0.6-0.1-1.6c0-0.5,0-1,0-1.4l0-1.7l1.1,0
			c0.6,0,0.7,0,0.8,0.1c0.1,0.1,0.1,0.2,0.1,0.7c0,0,0,0.1,0.1,0.1h0.4c0,0,0.1,0,0.1-0.1c0.1-0.6,0.2-1.1,0.3-1.6c0,0,0,0,0-0.1
			c0,0,0,0,0,0h-0.4c0,0,0,0-0.1,0c-0.1,0.2-0.2,0.2-0.5,0.2c-0.5,0-2,0.1-3.1,0.1c-0.9,0-1.7,0-2.1,0c-0.2,0-0.3,0-0.3-0.3
			c0,0,0-0.1-0.1-0.1h-0.4c0,0-0.1,0-0.1,0.1c0,0.4-0.1,1-0.2,1.6c0,0,0,0,0,0.1c0,0,0,0,0,0h0.4c0,0,0,0,0.1,0c0,0,0-0.1,0-0.1l0,0
			C143.5,26.5,143.6,26.4,144,26.4z"/>
		<path fill="#FFFFFF" d="M155.6,26.3c0.1,0.2,0.2,0.4,0.2,0.8c0,0.5,0.1,1.7,0.1,2.7c0,1,0,1.5-0.2,1.7c-0.1,0.1-0.3,0.2-0.8,0.2
			c0,0,0,0,0,0.1v0.4c0,0,0,0,0,0c0,0,0,0,0,0c0,0,0.7-0.1,1.4-0.1c0.7,0,1.4,0,1.9,0.1c0,0,0,0,0,0c0,0,0,0,0,0c0,0,0,0,0,0v-0.4
			c0,0,0-0.1-0.1-0.1c-0.5-0.1-0.7-0.2-0.8-0.4c-0.1-0.2-0.2-0.4-0.2-1.8c0-1.1,0-1.4,0-1.6c0,0,0-0.1,0-0.1c0-1.2,0.1-1.4,0.2-1.5
			c0.2-0.2,0.2-0.2,0.9-0.3c0,0,0,0,0-0.1v-0.3c0,0,0-0.1-0.1-0.1c-0.1,0-0.2,0-0.4,0c-0.3,0-0.7,0-1.2,0c-0.7,0-1.3,0-1.8-0.1
			c0,0,0,0,0,0c0,0,0,0,0,0v0.4c0,0,0,0.1,0.1,0.1C155.2,26,155.5,26.1,155.6,26.3z"/>
		<path fill="#FFFFFF" d="M171.3,25.5C171.3,25.5,171.3,25.5,171.3,25.5c-0.1,0-1.6,0-1.7,0c-0.3,0-1.2,0-1.2,0c0,0,0,0,0,0
			c0,0,0,0,0,0v0.4c0,0,0,0.1,0.1,0.1c0.6,0.1,0.8,0.2,0.9,0.4c0.1,0.2,0.1,0.4,0.1,1.8l0,1.8c-0.2-0.3-0.6-0.7-1-1.1l-0.4-0.4
			c-1.6-1.7-2.4-2.7-2.6-3c0,0,0,0-0.1,0c-0.1,0-0.1,0-0.3,0c-0.2,0-0.5,0-0.9,0c-0.6,0-0.9,0-1,0c-0.1,0-0.2,0-0.3,0
			c0,0-0.1,0-0.1,0.1v0.4c0,0,0,0.1,0.1,0.1c0.6,0,0.9,0.2,1.3,0.5c0,0.3,0,2.5,0,3.3c0,1.2,0,1.4-0.1,1.6c-0.1,0.2-0.3,0.3-1,0.4
			c0,0-0.1,0-0.1,0.1v0.4c0,0,0,0,0,0c0,0,0,0,0,0c0.5,0,1-0.1,1.6-0.1c0.7,0,1.1,0,1.5,0.1c0,0,0,0,0,0c0,0,0,0,0,0v-0.4
			c0,0,0-0.1-0.1-0.1c-0.7-0.1-1-0.2-1.1-0.4c-0.1-0.2-0.1-0.3-0.1-1.8c0,0,0-1.3,0-2c0-0.1,0-0.2,0-0.3c0.3,0.4,1.4,1.6,2.2,2.4
			l0.2,0.2c1.2,1.3,2,2.2,2.3,2.6c0,0,0,0,0,0c0,0,0,0,0,0l0.3-0.2c0,0,0,0,0-0.1c0,0,0.1-3.7,0.1-3.9c0-1.2,0-1.6,0.1-1.8
			c0.1-0.2,0.4-0.4,1-0.4c0,0,0.1,0,0.1-0.1L171.3,25.5C171.4,25.5,171.4,25.5,171.3,25.5z"/>
		<path fill="#FFFFFF" d="M107.7,37.6c-0.7,0.1-1.4,0.1-1.7,0.1c-0.1,0-0.2,0-0.3,0c0,0,0,0-0.1,0c0,0-0.6,1.2-1.2,2.5
			c-0.3,0.6-0.6,1.2-0.8,1.7c-0.1,0.3-0.3,0.6-0.3,0.7c-0.1-0.3-0.3-0.7-0.6-1.2c-0.2-0.3-0.3-0.6-0.5-1c-0.3-0.6-0.5-1-0.7-1.3
			c-0.4-0.7-0.5-1-0.6-1.3c0,0,0,0-0.1,0c-0.2,0-0.3,0-0.5,0c-0.5,0-1.6-0.1-1.6-0.1c0,0,0,0,0,0c0,0,0,0,0,0v0.4c0,0,0,0.1,0.1,0.1
			c0.4,0.1,0.7,0.1,0.8,0.2c0.1,0.1,0.2,0.2,0.4,0.6v0.1c0,0.3,0,0.7,0,1c0,0.4,0,0.7,0,1c0,0.2,0,0.5,0,0.7c0,1.4,0,1.6-0.1,1.8
			c-0.1,0.2-0.2,0.3-0.9,0.4c0,0,0,0,0,0.1v0.4c0,0,0,0,0,0c0,0,0,0,0.1,0c0.4-0.1,0.6-0.1,1.1-0.1c0.6,0,1.4,0.1,1.6,0.1
			c0,0,0,0,0,0c0,0,0,0,0,0v-0.4c0,0,0-0.1-0.1-0.1c-0.7-0.1-0.8-0.2-0.9-0.4c-0.1-0.2-0.1-0.4-0.1-0.5c0-0.7,0-1.9,0-2.7
			c0.2,0.3,0.5,1,1,1.9c0.6,1.2,1,2,1.2,2.3c0,0,0,0,0.1,0h0.4c0,0,0,0,0.1,0c0.2-0.6,0.4-1,1.1-2.5c0.2-0.4,0.4-0.8,0.5-1
			c0.2-0.5,0.4-0.8,0.5-1c0,0.4,0,1.2,0,1.8c0,1.1,0,1.5-0.1,1.7c-0.1,0.2-0.2,0.4-0.8,0.4c0,0-0.1,0-0.1,0.1v0.4c0,0,0,0,0,0
			c0,0,0,0,0,0c0.5-0.1,1-0.1,1.5-0.1c0.4,0,1.7,0.1,1.7,0.1c0,0,0,0,0,0c0,0,0,0,0,0v-0.4c0,0,0-0.1-0.1-0.1
			c-0.6-0.1-0.8-0.2-0.9-0.5c-0.1-0.3-0.1-0.6-0.1-1.7l0-1.7c0-1,0-1.3,0.1-1.4c0.1-0.2,0.3-0.3,0.9-0.4c0,0,0.1,0,0.1-0.1
			L107.7,37.6C107.8,37.7,107.8,37.7,107.7,37.6C107.8,37.6,107.7,37.6,107.7,37.6z"/>
		<path fill="#FFFFFF" d="M115.2,37.7c-2,0-3.6,1.5-3.6,3.4c0,1.9,1.5,3.3,3.6,3.3c2,0,3.6-1.5,3.6-3.5
			C118.8,39.1,117.3,37.7,115.2,37.7z M115.3,44c-1.2,0-2.2-1.3-2.2-3.1c0-1.6,0.8-2.7,2.1-2.7c1.2,0,2.1,1.3,2.1,3
			C117.3,42.8,116.4,44,115.3,44z"/>
		<path fill="#FFFFFF" d="M128.8,43.5c-0.5-0.5-0.8-1-1.4-2l-0.3-0.5c0.8-0.2,1.3-0.7,1.3-1.4c0-1.2-1-1.9-2.7-1.9c0,0-0.1,0-0.1,0
			c-0.2,0-0.5,0-0.9,0c-1.1,0-1.8-0.1-1.9-0.1c0,0,0,0,0,0c0,0,0,0,0,0v0.4c0,0,0,0.1,0.1,0.1c0.4,0.1,0.6,0.1,0.8,0.2
			c0.3,0.3,0.3,0.7,0.3,3.4c0,1.2,0,1.6-0.1,1.8c-0.1,0.2-0.3,0.2-0.9,0.3c0,0-0.1,0-0.1,0.1v0.4c0,0,0,0,0,0c0,0,0,0,0,0
			c0.5-0.1,1.1-0.1,1.7-0.1c0.6,0,1.3,0,1.6,0.1c0.1,0,0.1,0,0.2,0c0,0,0.1,0,0.1-0.1v-0.4c0,0,0-0.1-0.1-0.1
			c-0.9-0.1-1-0.3-1.1-0.7c0-0.3-0.1-0.8-0.1-1.6v-0.2c0.1,0,0.2,0,0.2,0c0.4,0,0.5,0.2,0.7,0.6c0,0.1,0.1,0.1,0.1,0.2
			c0,0.1,0.1,0.1,0.1,0.2c0.3,0.5,0.9,1.5,1.4,1.8c0.3,0.2,0.8,0.3,1.5,0.3c0.3,0,0.5,0,0.7,0c0,0,0.1,0,0.1-0.1V44
			c0,0,0-0.1-0.1-0.1C129.5,44,129.2,43.8,128.8,43.5z M127,39.6c0,0.8-0.5,1.3-1.4,1.3c-0.1,0-0.3,0-0.4,0v-2.7h0.3
			C126.4,38.2,127,38.8,127,39.6z"/>
		<path fill="#FFFFFF" d="M139.5,42.7h-0.3c0,0,0,0-0.1,0c0,0.1,0,0.1-0.1,0.2c-0.1,0.3-0.2,0.5-0.5,0.7c-0.3,0.1-0.6,0.2-1.1,0.2
			c-0.6,0-0.9-0.1-1.1-0.3c-0.2-0.2-0.2-0.3-0.2-1.3v-1c0.2,0,0.3,0,0.6,0c0.8,0,1,0.1,1.1,0.3c0.1,0.2,0.2,0.2,0.2,0.6c0,0,0,0,0,0
			c0,0,0,0,0,0l0.3-0.2c0,0,0,0,0-0.1c-0.1-0.4-0.1-0.6-0.1-1.1c0-0.3,0-0.4,0-0.8l0,0c0,0,0,0,0,0c0,0,0,0,0,0h-0.4
			c0,0-0.1,0-0.1,0c-0.1,0.3-0.2,0.5-0.3,0.5c-0.1,0.1-0.5,0.1-1.1,0.1c-0.2,0-0.3,0-0.4,0c0-0.1,0-0.5,0-0.9c0-0.2,0-1.2,0-1.4
			c0.6,0,0.9,0,1,0l0.1,0c1.1,0,1.3,0.2,1.5,1c0,0,0,0,0.1,0h0.3c0,0,0,0,0,0c0,0,0,0,0,0l0-1.5c0,0,0,0,0,0c0,0,0,0,0,0
			c-0.4,0-0.5,0-1.2,0h-1.3c-1.7,0-2.1,0-2.5-0.1c-0.1,0-0.1,0-0.2,0c0,0,0,0,0,0c0,0,0,0,0,0v0.4c0,0,0,0.1,0.1,0.1
			c0.4,0.1,0.6,0.1,0.8,0.3c0.2,0.2,0.2,0.4,0.2,0.8l0,3.6c0,0.5-0.1,0.7-0.1,0.8c-0.1,0.2-0.3,0.2-0.7,0.3c0,0,0,0,0,0.1v0.4
			c0,0,0,0,0,0c0,0,0,0,0,0l0.1,0c0.2,0,0.7-0.1,1.3-0.1c0.5,0,1.1,0,1.6,0c0.5,0,0.9,0,1.3,0c0.4,0,0.6,0,0.9,0l0.1,0
			c0,0,0.1,0,0.1-0.1c0-0.2,0-0.3,0.1-0.7C139.5,43.2,139.5,43,139.5,42.7C139.6,42.8,139.6,42.8,139.5,42.7
			C139.6,42.7,139.5,42.7,139.5,42.7z"/>
		<path fill="#FFFFFF" d="M150.7,37.7h-0.4c0,0,0,0-0.1,0c-0.1,0.2-0.2,0.2-0.5,0.2c-0.6,0-2.1,0.1-3.1,0.1c-0.8,0-1.6,0-2.1,0
			c-0.2,0-0.3,0-0.3-0.3c0,0,0-0.1-0.1-0.1h-0.4c0,0-0.1,0-0.1,0.1c0,0.4-0.1,1-0.2,1.6c0,0,0,0,0,0.1c0,0,0,0,0,0h0.4
			c0,0,0,0,0.1,0c0,0,0-0.1,0-0.1c0,0,0,0,0,0c0.2-0.5,0.3-0.6,0.7-0.7c0.3,0,0.9,0,1.8,0l0,1.7c0,0,0,1,0,1.6v0.2
			c0,0.5,0,1.2-0.2,1.4c-0.1,0.2-0.3,0.2-0.6,0.3c-0.1,0-0.1,0-0.2,0c0,0,0,0,0,0.1v0.4c0,0,0,0,0,0c0,0,0,0,0,0
			c0.4,0,1.1-0.1,1.6-0.1c0.5,0,1.1,0,1.7,0.1c0,0,0,0,0,0c0,0,0,0,0,0c0,0,0,0,0,0v-0.4c0,0,0-0.1-0.1-0.1
			c-0.6-0.1-0.8-0.2-0.9-0.6c-0.1-0.3-0.1-0.6-0.1-1.6c0-0.5,0-1,0-1.4l0-1.7l1.1,0c0.6,0,0.7,0,0.8,0.1c0.1,0.1,0.1,0.2,0.1,0.7
			c0,0,0,0.1,0.1,0.1h0.4c0,0,0.1,0,0.1-0.1C150.5,38.8,150.6,38.3,150.7,37.7C150.7,37.7,150.7,37.7,150.7,37.7
			C150.7,37.7,150.7,37.7,150.7,37.7z"/>
		<path fill="#FFFFFF" d="M162.2,37.7c-0.4,0-0.8,0.1-1.5,0.1c-0.4,0-1,0-1.3,0c0,0,0,0,0,0c0,0,0,0,0,0v0.4c0,0,0,0.1,0.1,0.1
			c0.8,0.1,0.9,0.2,1,0.6c0.1,0.3,0.1,1.5,0.1,2.4c0,1.1-0.1,1.5-0.4,1.9c-0.3,0.4-0.9,0.7-1.6,0.7c-0.6,0-1-0.2-1.4-0.5
			c-0.4-0.4-0.5-0.7-0.5-2.5l0-1.5c0-0.9,0.2-1,1.2-1.1c0,0,0.1,0,0.1-0.1v-0.4c0,0,0,0,0,0c0,0,0,0,0,0c-0.6,0.1-1,0.1-1.6,0.1
			c-0.8,0-1.6,0-2-0.1c0,0,0,0-0.1,0c0,0,0,0,0,0v0.4c0,0,0,0.1,0,0.1c0.6,0.1,0.8,0.2,0.9,0.5c0.1,0.3,0.1,0.6,0.1,2.9v0.2
			c0,0.8,0,1.3,0.6,1.9c0.5,0.6,1.3,0.8,2.4,0.8c1,0,1.7-0.3,2.2-0.9c0.4-0.4,0.6-0.9,0.6-1.6c0-0.4,0.1-2.7,0.1-2.8
			c0-0.8,0.1-0.9,1.1-1.1c0,0,0,0,0-0.1L162.2,37.7C162.2,37.7,162.2,37.7,162.2,37.7C162.2,37.7,162.2,37.7,162.2,37.7z"/>
		<path fill="#FFFFFF" d="M169.3,40.8c-0.2-0.1-0.4-0.2-0.7-0.3l-0.2-0.1c-0.5-0.2-1-0.4-1-1.1c0-0.6,0.5-1.1,1.2-1.1
			c0.7,0,1.1,0.4,1.3,1.2c0,0,0,0,0.1,0h0.4c0,0,0,0,0,0c0,0,0,0,0-0.1c0-0.2,0-0.7,0-0.9v-0.4c0,0,0,0,0-0.1
			c-0.6-0.3-1.2-0.4-1.7-0.4c-1.4,0-2.4,0.8-2.4,1.9c0,0.7,0.4,1.2,1.1,1.6c0.2,0.1,0.5,0.2,0.7,0.3c0.5,0.2,0.9,0.4,1.2,0.6
			c0.2,0.2,0.2,0.4,0.2,0.6c0,0.6-0.6,1.1-1.3,1.1c-0.4,0-0.8-0.2-1.1-0.4c-0.3-0.3-0.4-0.5-0.5-1.1c0,0,0-0.1-0.1-0.1H166
			c0,0-0.1,0-0.1,0.1c0,0.1,0,0.2,0,0.3c0,0.2,0,0.4,0,0.6c0,0.2,0,0.3,0,0.6c0,0,0,0,0,0.1c0.7,0.4,1.4,0.5,2.1,0.5
			c1.5,0,2.6-0.9,2.6-2C170.6,41.6,170.1,41.2,169.3,40.8z"/>
	</g>
	<g>
		<path fill="#FFFFFF" d="M117.7,66.9l-0.5-0.4c0,0,0,0,0,0c0,0,0,0,0,0l-0.1,0.1c0,0,0,0,0,0c0,0,0,0,0,0l0,0c0,0,0.1,0.1,0.1,0.1
			c0,0,0,0,0,0.1l-0.5,0.6c0,0.1-0.1,0.1-0.1,0.1c0,0,0,0-0.1,0l0,0c0,0,0,0,0,0l-0.1,0.1c0,0,0,0,0,0l0.9,0.7c0,0,0,0,0,0
			c0,0,0,0,0,0l0.3-0.3c0,0,0,0,0,0c0,0,0,0,0,0l-0.1-0.1c0,0,0,0,0,0c-0.1,0.1-0.1,0.1-0.2,0.1c0,0,0,0,0,0c-0.1,0-0.1,0-0.2-0.1
			c-0.1,0-0.1-0.1-0.1-0.1c0,0,0,0,0,0c0,0,0,0,0.1-0.1l0.4-0.6c0,0,0.1-0.1,0.1-0.1c0,0,0,0,0.1,0l0,0c0,0,0,0,0,0s0,0,0,0
			L117.7,66.9C117.8,66.9,117.8,66.9,117.7,66.9z"/>
		<path fill="#FFFFFF" d="M118.9,68.8c0,0,0-0.1,0-0.2l0.1-1.1c0,0,0,0,0,0l-0.1,0c0,0,0,0,0,0l-0.8,0.7c-0.1,0.1-0.2,0.1-0.2,0.1
			c0,0,0,0,0,0c0,0,0,0,0,0l0,0.1c0,0,0,0,0,0l0.4,0.2c0,0,0,0,0,0l0-0.1c0,0,0,0,0,0c0,0,0,0,0,0c0,0-0.1,0-0.1,0c0,0,0,0,0,0
			c0,0,0,0,0.1-0.1l0,0l0.3,0.2l0,0.1c0,0,0,0,0,0.1c0,0,0,0,0,0c0,0,0,0-0.1,0c0,0,0,0,0,0l0,0.1c0,0,0,0,0,0l0.6,0.3c0,0,0,0,0,0
			c0,0,0,0,0,0c0,0,0,0,0,0L118.9,68.8C119,68.9,119,68.9,118.9,68.8C118.9,68.9,118.9,68.8,118.9,68.8z M118.5,68.3l-0.2-0.1
			l0.2-0.2L118.5,68.3z"/>
		<path fill="#FFFFFF" d="M120.3,68.1l-0.5-0.2c0,0,0,0,0,0l0,0.1c0,0,0,0,0,0c0,0,0,0,0,0c0.1,0,0.1,0,0.1,0.1c0,0,0,0,0,0.1
			l-0.2,0.7c0,0.1,0,0.1-0.1,0.1c0,0-0.1,0-0.1,0c0,0,0,0,0,0c0,0,0,0,0,0l0,0.1c0,0,0,0,0,0l0.6,0.2c0.1,0,0.2,0.1,0.3,0.1
			c0,0,0.1,0,0.1,0c0.1,0,0.2-0.1,0.2-0.2c0-0.1,0-0.2,0-0.3c0-0.1-0.1-0.1-0.2-0.2c0.1,0,0.1,0,0.2,0c0.1,0,0.1-0.1,0.1-0.2
			c0-0.1,0-0.2,0-0.3C120.6,68.2,120.5,68.2,120.3,68.1z M120.2,69.1c0,0.1-0.1,0.1-0.1,0.2c0,0-0.1,0-0.1,0c0,0-0.1,0-0.1,0
			c0,0,0,0,0,0c0,0,0,0,0-0.1l0.1-0.3l0,0c0.1,0,0.1,0,0.1,0.1c0,0,0,0,0,0.1C120.2,68.9,120.2,69,120.2,69.1z M120.3,68.5
			c0,0.1-0.1,0.1-0.1,0.1c0,0-0.1,0-0.1,0l0,0l0.1-0.4c0,0,0.1,0,0.1,0c0,0,0,0,0,0.1C120.4,68.4,120.3,68.4,120.3,68.5z"/>
		<path fill="#FFFFFF" d="M122,68.5c-0.1,0-0.2,0-0.4,0c-0.1,0-0.2,0.1-0.3,0.2c-0.1,0.1-0.1,0.2-0.2,0.3c0,0.1,0,0.2,0,0.3
			c0,0.1,0.1,0.2,0.2,0.3c0.1,0.1,0.2,0.1,0.4,0.2c0.1,0,0.1,0,0.2,0c0.1,0,0.3,0,0.4-0.1c0.1-0.1,0.2-0.3,0.3-0.4
			c0-0.2,0-0.4-0.1-0.5C122.4,68.7,122.2,68.6,122,68.5z M122.2,69.2c0,0.2-0.1,0.3-0.1,0.4c-0.1,0.1-0.1,0.1-0.2,0.1
			c-0.1,0-0.2-0.1-0.2-0.2c0-0.1,0-0.2,0-0.4c0-0.2,0.1-0.3,0.1-0.4c0-0.1,0.1-0.1,0.2-0.1c0,0,0,0,0.1,0c0.1,0,0.2,0.1,0.2,0.2
			C122.2,68.9,122.2,69.1,122.2,69.2z"/>
		<path fill="#FFFFFF" d="M124.3,69.9c0,0-0.1-0.1-0.1-0.2c-0.1-0.1-0.1-0.2-0.2-0.3c0.2-0.1,0.2-0.2,0.2-0.3c0-0.1,0-0.1,0-0.2
			c0-0.1-0.1-0.1-0.1-0.1c-0.1,0-0.1-0.1-0.2-0.1c-0.1,0-0.1,0-0.3,0l-0.6,0c0,0,0,0,0,0c0,0,0,0,0,0l0,0.1c0,0,0,0,0,0l0,0
			c0.1,0,0.1,0,0.1,0c0,0,0,0,0,0.1l0,0.7c0,0.1,0,0.1,0,0.1c0,0,0,0-0.1,0l0,0h0c0,0,0,0,0,0l0,0.1c0,0,0,0,0,0c0,0,0,0,0,0l0.7,0
			c0,0,0,0,0,0c0,0,0,0,0,0l0-0.1c0,0,0,0,0,0l0,0c-0.1,0-0.1,0-0.1,0c0,0,0,0,0-0.1l0-0.3c0.1,0,0.1,0,0.1,0c0,0,0,0,0,0
			c0,0,0.1,0.1,0.1,0.2c0.1,0.2,0.2,0.3,0.2,0.3c0,0,0,0,0,0l0.4,0c0,0,0,0,0,0c0,0,0,0,0,0c0,0,0,0,0,0l0-0.1
			C124.4,69.9,124.4,69.9,124.3,69.9C124.4,69.9,124.4,69.9,124.3,69.9z M123.8,69.2C123.8,69.3,123.8,69.3,123.8,69.2
			c-0.1,0.1-0.2,0.1-0.3,0.1l0-0.4c0,0,0,0,0,0c0.1,0,0.2,0,0.2,0.1c0,0,0,0.1,0,0.2C123.9,69.2,123.8,69.2,123.8,69.2z"/>
		<path fill="#FFFFFF" d="M126,69.5C126,69.5,126,69.5,126,69.5h-0.1c0,0,0,0,0,0c0,0.1,0,0.1-0.1,0.2c0,0-0.1,0.1-0.1,0.1
			c0,0-0.1,0-0.2,0c-0.1,0-0.1,0-0.1,0c0,0,0,0,0,0c0,0,0,0,0-0.1l0-0.3l0.1,0c0.1,0,0.1,0,0.1,0c0,0,0,0.1,0,0.1v0c0,0,0,0,0,0
			c0,0,0,0,0,0l0.1,0c0,0,0,0,0,0c0,0,0,0,0,0l0-0.4c0,0,0,0,0,0l0,0l-0.1,0c0,0,0,0,0,0c0,0.1,0,0.1,0,0.1c0,0,0,0-0.1,0l-0.1,0
			l0-0.4l0.2,0c0.1,0,0.1,0,0.1,0c0,0,0,0,0.1,0.1c0,0,0,0.1,0.1,0.1c0,0,0,0,0,0l0.1,0c0,0,0,0,0,0c0,0,0,0,0,0l0-0.3c0,0,0,0,0,0
			l0,0l-1.1,0.1c0,0,0,0,0,0c0,0,0,0,0,0l0,0.1c0,0,0,0,0,0c0,0,0,0,0,0h0c0.1,0,0.1,0,0.1,0c0,0,0,0.1,0,0.1l0,0.7
			c0,0.1,0,0.1,0,0.1c0,0,0,0-0.1,0l0,0c0,0,0,0,0,0c0,0,0,0,0,0l0,0.1c0,0,0,0,0,0h0L126,70c0,0,0,0,0,0L126,69.5
			C126,69.5,126,69.5,126,69.5z"/>
		<path fill="#FFFFFF" d="M133.3,68.3C133.3,68.3,133.3,68.3,133.3,68.3l-0.1,0c0,0,0,0,0,0c0,0.1,0,0.1,0,0.2c0,0,0,0.1-0.1,0.1
			c0,0-0.1,0-0.2,0.1c-0.1,0-0.1,0-0.1,0c0,0,0,0,0,0c0,0,0,0,0-0.1l0-0.3l0.1,0c0,0,0.1,0,0.1,0c0,0,0,0.1,0,0.1c0,0,0,0,0,0
			c0,0,0,0,0,0c0,0,0,0,0,0l0.1,0c0,0,0,0,0,0c0,0,0,0,0,0l-0.1-0.4c0,0,0,0,0,0c0,0,0,0,0,0l-0.1,0c0,0,0,0,0,0c0,0.1,0,0.1,0,0.1
			c0,0,0,0-0.1,0l-0.1,0l-0.1-0.4l0.2,0c0,0,0.1,0,0.1,0c0,0,0,0,0.1,0c0,0,0.1,0.1,0.1,0.1c0,0,0,0,0,0l0.1,0c0,0,0,0,0,0
			c0,0,0,0,0,0l-0.1-0.3c0,0,0,0,0,0l-1.1,0.1c0,0,0,0,0,0c0,0,0,0,0,0l0,0.1c0,0,0,0,0,0l0,0c0.1,0,0.1,0,0.1,0c0,0,0,0,0,0.1
			l0.1,0.7c0,0,0,0.1,0,0.1c0,0,0,0-0.1,0l0,0c0,0,0,0,0,0c0,0,0,0,0,0l0,0.1c0,0,0,0,0,0c0,0,0,0,0,0c0,0,0,0,0,0l1.1-0.2
			c0,0,0,0,0,0L133.3,68.3C133.3,68.3,133.3,68.3,133.3,68.3z"/>
		<path fill="#FFFFFF" d="M133.8,67.4C133.8,67.4,133.8,67.4,133.8,67.4C133.7,67.4,133.7,67.4,133.8,67.4l0,0.4c0,0,0,0,0,0
			c0,0,0,0,0,0h0.1c0,0,0,0,0,0c0-0.1,0-0.1,0-0.1c0,0,0-0.1,0.1-0.1c0,0,0.1,0,0.1,0l0.1,0l0,0.9c0,0.1,0,0.1,0,0.1c0,0,0,0-0.1,0
			h0c0,0,0,0,0,0l0,0.1c0,0,0,0,0,0l0.7,0c0,0,0,0,0,0c0,0,0,0,0,0v-0.1c0,0,0,0,0,0c0,0,0,0,0,0h0c-0.1,0-0.1,0-0.1,0
			c0,0,0,0,0-0.1l0-0.9h0.1c0.1,0,0.1,0,0.2,0c0,0,0.1,0.1,0.1,0.2c0,0,0,0,0,0h0.1c0,0,0,0,0,0l0-0.4c0,0,0,0,0,0L133.8,67.4z"/>
		<path fill="#FFFFFF" d="M137.6,67.8C137.5,67.8,137.5,67.8,137.6,67.8C137.5,67.8,137.5,67.8,137.6,67.8c-0.2,0-0.3-0.1-0.4-0.1
			c-0.2,0-0.4,0-0.5,0.1c-0.1,0.1-0.2,0.3-0.3,0.4c0,0.2,0,0.3,0.1,0.5c0.1,0.2,0.2,0.3,0.4,0.3c0.2,0,0.3,0,0.4-0.1
			c0,0,0,0.1,0,0.1c0,0,0,0,0,0l0.1,0c0,0,0,0,0,0c0,0,0,0,0,0l0.1-0.5c0,0,0,0,0,0l-0.1,0c0,0,0,0,0,0c0,0.1-0.1,0.2-0.2,0.3
			c-0.1,0-0.2,0.1-0.2,0c-0.1,0-0.1,0-0.2-0.1c0,0-0.1-0.1-0.1-0.2c0-0.1,0-0.2,0-0.3c0-0.2,0.1-0.3,0.1-0.4
			c0.1-0.1,0.1-0.1,0.2-0.1c0.1,0,0.2,0.1,0.2,0.1c0.1,0.1,0.1,0.2,0.1,0.3c0,0,0,0,0,0l0.1,0c0,0,0,0,0,0c0,0,0,0,0,0l0.1-0.5
			C137.7,67.8,137.7,67.8,137.6,67.8L137.6,67.8z"/>
		<path fill="#FFFFFF" d="M138.9,68c-0.1,0-0.2,0-0.4,0c-0.1,0-0.2,0.1-0.3,0.2c-0.1,0.1-0.1,0.2-0.2,0.3c0,0.1,0,0.2,0,0.3
			c0,0.1,0.1,0.2,0.2,0.3c0.1,0.1,0.2,0.1,0.4,0.2c0.1,0,0.1,0,0.2,0c0.1,0,0.3,0,0.4-0.1c0.2-0.1,0.3-0.2,0.3-0.4
			c0-0.2,0-0.4-0.1-0.5C139.3,68.2,139.2,68.1,138.9,68z M139.1,68.8c0,0.2-0.1,0.3-0.2,0.4c-0.1,0.1-0.1,0.1-0.2,0.1
			c-0.1,0-0.2-0.1-0.2-0.2c0-0.1,0-0.2,0-0.4c0-0.2,0.1-0.3,0.1-0.4c0,0,0.1-0.1,0.2-0.1c0,0,0,0,0.1,0c0.1,0,0.2,0.1,0.2,0.2
			C139.1,68.5,139.1,68.6,139.1,68.8z"/>
		<path fill="#FFFFFF" d="M141,68.5C141,68.5,141,68.5,141,68.5C141,68.5,141,68.5,141,68.5l0,0.1c0,0,0,0,0,0c0,0,0,0,0,0
			c0,0,0.1,0,0.1,0.1c0,0,0,0.1,0,0.1l-0.1,0.4l-0.5-0.8c0,0,0,0,0,0l-0.4-0.1c0,0,0,0,0,0c0,0,0,0,0,0l0,0.1c0,0,0,0,0,0
			c0.1,0,0.1,0.1,0.1,0.2l-0.1,0.6c0,0.1,0,0.1,0,0.1c0,0,0,0-0.1,0c0,0-0.1,0-0.1,0c0,0,0,0,0,0c0,0,0,0,0,0l0,0.1c0,0,0,0,0,0
			c0,0,0,0,0,0l0.5,0.1c0,0,0,0,0,0l0-0.1c0,0,0,0,0,0c0,0-0.1,0-0.1-0.1c0,0,0-0.1,0-0.2l0.1-0.5l0.6,1c0,0,0,0,0,0l0.1,0
			c0,0,0,0,0,0c0,0,0,0,0,0l0.2-1c0-0.1,0-0.1,0-0.1c0,0,0,0,0.1,0c0,0,0.1,0,0.1,0c0,0,0,0,0,0l0-0.1c0,0,0,0,0,0L141,68.5z"/>
		<path fill="#FFFFFF" d="M142.6,69.3c0,0-0.1-0.1-0.2-0.1c-0.1-0.1-0.2-0.1-0.2-0.1c0,0,0,0-0.1-0.1c0,0,0,0,0-0.1c0,0,0-0.1,0-0.1
			c0,0,0.1,0,0.1,0c0.1,0,0.1,0,0.1,0.1c0,0.1,0.1,0.1,0.1,0.2c0,0,0,0,0,0l0.1,0c0,0,0,0,0,0l0-0.4c0,0,0,0,0,0l-0.1,0c0,0,0,0,0,0
			c0,0,0,0,0,0c0,0-0.1,0-0.1-0.1h0c0,0-0.1-0.1-0.1-0.1c-0.1,0-0.2,0-0.3,0.1c-0.1,0.1-0.1,0.2-0.2,0.3c0,0.1,0,0.1,0,0.2
			c0,0.1,0.1,0.1,0.1,0.2c0,0,0.1,0.1,0.3,0.2c0.1,0.1,0.1,0.1,0.1,0.1c0,0,0,0.1,0,0.1c0,0,0,0.1,0,0.1c0,0-0.1,0-0.1,0
			c-0.1,0-0.1,0-0.2-0.1c-0.1-0.1-0.1-0.1-0.1-0.3c0,0,0,0,0,0l-0.1,0h0c0,0,0,0,0,0l0,0.4c0,0,0,0,0,0c0,0,0,0,0,0l0.1,0
			c0,0,0,0,0,0c0,0,0,0,0-0.1c0,0,0.1,0.1,0.1,0.1c0.1,0,0.1,0.1,0.2,0.1c0,0,0,0,0.1,0c0.1,0,0.2,0,0.3-0.1
			c0.1-0.1,0.1-0.2,0.2-0.3c0-0.1,0-0.1,0-0.2C142.7,69.4,142.7,69.3,142.6,69.3z"/>
		<path fill="#FFFFFF" d="M143.2,68.7L143.2,68.7C143.2,68.7,143.2,68.7,143.2,68.7l0,0.4c0,0,0,0,0,0l0.1,0l0,0c0,0,0,0,0,0
			c0-0.1,0-0.1,0-0.1c0,0,0-0.1,0.1-0.1c0,0,0.1,0,0.1,0l0.1,0l0,0.9c0,0.1,0,0.1,0,0.1c0,0,0,0-0.1,0h0l0,0c0,0,0,0,0,0l0,0.1
			c0,0,0,0,0,0c0,0,0,0,0,0l0.7,0l0,0c0,0,0,0,0,0l0-0.1c0,0,0,0,0,0c0,0,0,0,0,0l0,0c-0.1,0-0.1,0-0.1,0c0,0,0-0.1,0-0.1l0-0.9
			l0.1,0c0.1,0,0.1,0,0.2,0c0,0,0.1,0.1,0.1,0.2c0,0,0,0,0,0l0.1,0c0,0,0,0,0,0c0,0,0,0,0,0l0-0.4c0,0,0,0,0,0L143.2,68.7z"/>
		<path fill="#FFFFFF" d="M146.1,69.8L146.1,69.8L146.1,69.8C146,69.8,146,69.8,146.1,69.8c-0.1,0-0.1-0.1-0.2-0.2l-0.5-0.9
			c0,0,0,0,0,0l-0.1,0c0,0,0,0,0,0l-0.3,1c0,0.1-0.1,0.2-0.2,0.2c0,0,0,0,0,0c0,0,0,0,0,0l0,0.1c0,0,0,0,0,0c0,0,0,0,0,0l0.4,0
			c0,0,0,0,0,0c0,0,0,0,0,0l0-0.1c0,0,0,0,0,0h0c0,0-0.1,0-0.1,0c0,0,0,0,0,0c0,0,0,0,0-0.1l0,0l0.4,0l0,0.1c0,0,0,0,0,0
			c0,0,0,0,0,0c0,0,0,0-0.1,0c0,0,0,0,0,0c0,0,0,0,0,0l0,0.1c0,0,0,0,0,0l0.6,0c0,0,0,0,0,0c0,0,0,0,0,0L146.1,69.8
			C146.1,69.8,146.1,69.8,146.1,69.8z M145.2,69.5l0.1-0.3l0.1,0.3L145.2,69.5z"/>
		<path fill="#FFFFFF" d="M147.5,68.6C147.5,68.6,147.6,68.6,147.5,68.6c0.1-0.1,0.1-0.1,0.1-0.1c0,0,0,0,0,0l0-0.1c0,0,0,0,0,0
			l-0.4,0.1c0,0,0,0,0,0c0,0,0,0,0,0l0,0.1c0,0,0,0,0,0c0.1,0,0.2,0,0.2,0.1l0.1,0.4l-0.8-0.6c0,0,0,0,0,0l-0.4,0.1c0,0,0,0,0,0
			c0,0,0,0,0,0l0,0.1c0,0,0,0,0,0c0,0,0,0,0,0c0,0,0.1,0,0.1,0.1l0.1,0.6c0,0.1,0,0.1,0,0.1c0,0,0,0,0,0.1c0,0,0,0-0.1,0
			c0,0,0,0,0,0l0,0.1c0,0,0,0,0,0c0,0,0,0,0,0l0,0l0.5-0.1c0,0,0,0,0,0l0-0.1c0,0,0,0,0,0c0,0,0,0,0,0c0,0-0.1,0-0.1,0
			c0,0-0.1,0-0.1-0.1l-0.1-0.5l0.9,0.7c0,0,0,0,0,0l0.1,0c0,0,0,0,0,0c0,0,0,0,0,0l-0.2-1C147.5,68.6,147.5,68.6,147.5,68.6z"/>
		<path fill="#FFFFFF" d="M149.3,69L149.3,69c-0.1,0-0.1,0-0.1,0c0,0,0,0-0.1-0.1l-0.3-0.8l0.1,0c0.1,0,0.1,0,0.2,0
			c0,0,0.1,0.1,0.1,0.1c0,0,0,0,0,0l0.1,0c0,0,0,0,0,0l-0.1-0.3c0,0,0,0,0,0c0,0,0,0,0,0l-1.2,0.4c0,0,0,0,0,0c0,0,0,0,0,0l0.1,0.3
			c0,0,0,0,0,0c0,0,0,0,0,0l0.1,0c0,0,0,0,0,0c0-0.1,0-0.1,0-0.1c0,0,0-0.1,0-0.1c0,0,0.1,0,0.1-0.1l0.1,0l0.3,0.8
			c0,0.1,0,0.1,0,0.1c0,0,0,0-0.1,0.1l0,0c0,0,0,0,0,0c0,0,0,0,0,0l0,0.1c0,0,0,0,0,0c0,0,0,0,0,0l0.7-0.2c0,0,0,0,0,0c0,0,0,0,0,0
			L149.3,69C149.3,69,149.3,69,149.3,69z"/>
		<path fill="#FFFFFF" d="M150.7,68.4C150.7,68.4,150.6,68.4,150.7,68.4L150.7,68.4c-0.1,0-0.1,0-0.2,0c0,0,0,0-0.1-0.1l-0.3-0.7
			c0-0.1,0-0.1,0-0.1c0,0,0,0,0.1-0.1l0,0c0,0,0,0,0,0l0-0.1c0,0,0,0,0,0c0,0,0,0,0,0l-0.6,0.3c0,0,0,0,0,0l0,0.1c0,0,0,0,0,0
			c0,0,0,0,0,0c0.1,0,0.1,0,0.1,0c0,0,0,0,0.1,0.1l0.3,0.7c0,0.1,0,0.1,0,0.1c0,0,0,0-0.1,0.1c0,0,0,0,0,0c0,0,0,0,0,0l0,0.1
			c0,0,0,0,0,0c0,0,0,0,0,0l0.6-0.3c0,0,0,0,0,0C150.7,68.5,150.7,68.5,150.7,68.4L150.7,68.4z"/>
		<path fill="#FFFFFF" d="M152.1,67.4C152.1,67.4,152.1,67.4,152.1,67.4c-0.1,0-0.1,0-0.1,0c0,0-0.1,0-0.2-0.1l-0.9-0.5c0,0,0,0,0,0
			l-0.1,0.1c0,0,0,0,0,0l0.3,1c0,0.1,0,0.2,0,0.3c0,0,0,0,0,0c0,0,0,0,0,0l0.1,0.1c0,0,0,0,0,0c0,0,0,0,0,0c0,0,0,0,0,0l0.3-0.2
			c0,0,0,0,0,0c0,0,0,0,0,0l-0.1-0.1c0,0,0,0,0,0c0,0-0.1,0-0.1,0c0,0,0,0,0,0c0,0,0,0,0-0.1l0,0l0.3-0.2l0.1,0.1c0,0,0,0,0,0
			c0,0,0,0,0,0c0,0,0,0-0.1,0.1c0,0,0,0,0,0c0,0,0,0,0,0l0.1,0.1c0,0,0,0,0,0c0,0,0,0,0,0l0.5-0.4c0,0,0,0,0,0
			C152.2,67.5,152.2,67.5,152.1,67.4L152.1,67.4z M151.2,67.7l-0.1-0.3l0.3,0.2L151.2,67.7z"/>
		<path fill="#FFFFFF" d="M154.2,65.4c-0.4-2-2-4.5-2.1-4.6c0,0,0,0,0,0c0,0,0,0,0,0c0,0-1.4-1.7-4-0.5c-0.1,0-2,0.9-2.3,2.4
			c0,0.1,0,0.1,0,0.2l1.1,2.6c0,0.1,0.1,0.1,0.2,0.2c0.1,0,0.2,0,0.2-0.1c0,0,0.9-1,2.3-1.2c0.4-0.1,0.8-0.1,1.2,0
			c-1.9,1.9-6.3,3.2-11.3,2.1l-1.2-2.6l0.2-0.1c0.1,0,0.1-0.1,0.1-0.1c0-0.1,0-0.1,0-0.2l-2.1-4.7c0.2-0.4,0.4-0.9,0.4-1.4
			c0-1.5-1.2-2.8-2.8-2.8c-1.5,0-2.8,1.2-2.8,2.8c0,0.5,0.1,1,0.4,1.4l-2.1,4.7c0,0.1,0,0.1,0,0.2c0,0.1,0.1,0.1,0.1,0.1l0.2,0.1
			l-1.2,2.7c-4.9,1-9.1-0.3-10.9-2.2c0.4,0,0.8,0,1.2,0c1.4,0.3,2.3,1.2,2.3,1.2c0.1,0.1,0.1,0.1,0.2,0.1c0.1,0,0.2-0.1,0.2-0.2
			l1.1-2.6c0-0.1,0-0.1,0-0.2c-0.3-1.5-2.2-2.4-2.3-2.4c-2.6-1.2-4,0.5-4,0.5c0,0,0,0,0,0c0,0,0,0,0,0c-0.1,0.1-1.7,2.6-2.1,4.6
			c-0.5,2.3,1.1,4.3,4.1,5.5c1.8,0.7,3.5,0.9,5.1,0.9c0.9,0,1.8-0.1,2.7-0.2l-2.1,4.8c0,0.1-1,2-1,4.7c0,0.1,0.1,0.2,0.2,0.2
			c0,0,0.1,0,0.1,0c0.1,0,0.1,0,0.2-0.1c1.8-1.8,2.6-3.9,2.6-3.9l2.8-6.3c0.4-0.1,0.8-0.2,1.2-0.3c0.3-0.1,0.6-0.1,0.8-0.2
			c1.1-0.2,2.1-0.4,3-0.5c0.9,0,1.9,0.2,3,0.5c0.3,0.1,0.6,0.1,0.8,0.2c0.3,0.1,0.5,0.1,0.8,0.2l2.8,6.4c0,0.1,0.8,2.2,2.6,3.9
			c0,0,0.1,0.1,0.2,0.1c0,0,0.1,0,0.1,0c0.1,0,0.2-0.1,0.2-0.2c0.1-2.7-1-4.6-1-4.7l-2.2-4.9c1,0.2,2,0.3,3.1,0.3
			c1.7,0,3.4-0.3,5.1-0.9C153.2,69.7,154.7,67.7,154.2,65.4z M149.7,63.8c-1.1,0.2-1.9,0.8-2.3,1.1l-0.9-2.2c0.3-1.2,2-2,2-2
			c2.1-0.9,3.1,0.1,3.3,0.3c0.5,1.1,0.1,2-0.3,2.7C150.8,63.7,150.2,63.7,149.7,63.8z M139,66.2c-0.2-0.1-0.4-0.1-0.6-0.2
			c-0.3-0.1-0.6-0.2-0.9-0.2l-0.6-1.4L138,64L139,66.2z M138.1,63.3L138.1,63.3l-1.9,0.9l0-0.1l-1.6-3.7l0.1-0.3
			c0.6-0.1,1.2-0.4,1.6-0.8L138.1,63.3z M136.8,65.7c-0.4-0.1-0.9-0.1-1.3-0.2c-0.2,0-0.4,0-0.6,0c-0.1,0-0.2,0-0.3,0
			c0,0-0.1,0-0.1,0c0,0-0.1,0-0.1,0c-0.9,0-1.7,0.1-2.6,0.3l0.5-1.1l0.1,0c0,0,0.1,0,0.1,0c0.1,0,0.2-0.1,0.2-0.2l1.6-3.6l1.6,3.6
			c0,0.1,0.1,0.2,0.2,0.2c0,0,0.1,0,0.1,0l0.1,0L136.8,65.7z M134.3,55c1.2,0,2.2,1,2.2,2.2c0,0.3,0,0.5-0.1,0.7
			c0,0.1-0.1,0.2-0.1,0.3c-0.1,0.1-0.1,0.2-0.2,0.3c-0.3,0.4-0.6,0.6-1.1,0.8c-0.1,0-0.2,0.1-0.3,0.1c-0.1,0-0.2,0-0.3,0
			c0,0-0.1,0-0.1,0s0,0-0.1,0c-0.1,0-0.2,0-0.3,0c-0.1,0-0.2,0-0.3-0.1c-0.4-0.1-0.8-0.4-1.1-0.8c-0.1-0.1-0.1-0.2-0.2-0.3
			c-0.1-0.1-0.1-0.2-0.1-0.3c-0.1-0.2-0.1-0.5-0.1-0.7C132.1,56,133.1,55,134.3,55z M130.5,63.3l1.8-4.1c0.4,0.4,1,0.7,1.6,0.8
			c0.1,0,0.2,0,0.3,0l-0.1,0.3l-1.6,3.7l0,0.1L130.5,63.3L130.5,63.3z M117.3,61.1c0.2-0.2,1.2-1.2,3.3-0.3c0,0,1.7,0.8,2,2
			l-0.9,2.2c-0.4-0.4-1.2-0.9-2.3-1.1c-0.6-0.1-1.1-0.1-1.7,0C117.2,63.1,116.8,62.2,117.3,61.1z M119,70.4
			c-2.8-1.1-4.1-2.9-3.7-4.9c0.2-1,0.8-2.2,1.2-3.1c0,0.2,0,0.4,0.1,0.6c0.1,0.3,0.2,0.7,0.5,1c0,0.1,0.1,0.1,0.2,0.2
			c0.1,0.1,0.1,0.2,0.2,0.2c0,0,0,0,0.1,0.1c1.8,2.1,6.2,3.5,11.2,2.6l-1.8,4C124.5,71.5,121.8,71.5,119,70.4z M129.1,70.6
			L129.1,70.6l-0.1,0.3l0,0.1l-0.1,0.2l0,0.1l-2.6,6c0,0-0.6,1.7-2,3.3c0.1-2.2,0.9-3.7,0.9-3.8l2.3-5.2l0.1-0.3l0.1-0.3l1.8-4
			l0.1-0.3l0.1-0.3l1-2.4l1.1,0.5l-0.6,1.5l0,0l-0.1,0.3l0,0.1l-0.1,0.3l0,0L129.1,70.6z M143.6,76.8c0,0,0.8,1.5,0.9,3.7
			c-1.4-1.6-2-3.2-2-3.3l-2.7-6c0.5,0.1,1,0.2,1.5,0.3L143.6,76.8z M150,70.4c-2.9,1.1-5.7,1-8.3,0.6c-0.1,0-0.2,0-0.3-0.1
			c-0.1,0-0.2,0-0.3-0.1c-0.1,0-0.1,0-0.2,0c-0.1,0-0.2,0-0.3-0.1c-0.3-0.1-0.6-0.1-0.9-0.2c-0.1,0-0.2,0-0.3-0.1
			c-0.1,0-0.2-0.1-0.3-0.1c-0.1,0-0.3-0.1-0.4-0.1c-0.3-0.1-0.6-0.1-0.9-0.2c-1.1-0.3-2.1-0.5-3-0.5c0,0-0.1,0-0.1,0
			c-0.9,0-1.9,0.2-3.1,0.5c-0.2,0-0.3,0.1-0.5,0.1c-0.4,0.1-0.8,0.2-1.1,0.2l1.8-4.1c1-0.3,1.9-0.4,3-0.4c0,0,0,0,0.1,0
			c0.8,0,1.6,0.1,2.5,0.3c0.1,0,0.2,0,0.3,0.1c0.1,0,0.2,0.1,0.3,0.1c0.1,0,0.3,0.1,0.4,0.1c0,0,0,0,0,0c0,0,0,0,0,0
			c0.3,0.1,0.7,0.2,1,0.3c0.1,0,0.2,0,0.3,0.1c0.1,0,0.2,0,0.3,0.1c5.2,1,9.8-0.4,11.6-2.5c0,0,0,0,0.1-0.1c0.1-0.1,0.1-0.2,0.2-0.2
			c0.1-0.1,0.1-0.1,0.2-0.2c0.2-0.3,0.4-0.7,0.5-1c0-0.2,0.1-0.4,0.1-0.6c0.5,0.9,1,2.1,1.2,3.1C154.1,67.5,152.7,69.3,150,70.4z"/>
	</g>
</g>
</svg>
