<?xml version="1.0" encoding="utf-8"?>
<!-- Generator: Adobe Illustrator 25.3.1, SVG Export Plug-In . SVG Version: 6.00 Build 0)  -->
<svg version="1.1" id="Layer_1" xmlns="http://www.w3.org/2000/svg" xmlns:xlink="http://www.w3.org/1999/xlink" x="0px" y="0px"
	 viewBox="0 0 1658.3 257.4" style="enable-background:new 0 0 1658.3 257.4;" xml:space="preserve">
<style type="text/css">
	.st0{fill:#B11E3D;}
</style>
<path class="st0" d="M1645.9,128.7h-10.6h-3.1h-9l-0.1-3.7l9.1-5l-9.9-1.5V117l7.8-3.5l-9.1-2.4l7.7-4.1l-7.5-2l5.1-3.2l-4.3-1.9
	l4.3-3l-10.4-6l-0.8-9.2l-1.2,8.1l-0.8-0.5l-9.5,7.6l3.4,1.8l-4.8,3.7l4.8,2.2l-7.3,2.9l7.3,2.7l-8.3,3.3l7.1,1.5v2.7l-10.5,2.5
	l10.5,3.7l-0.2,5.6l-22.7,6.6l-11.4,12.7l-4.5-7.9l-13.5-4.4l-13.1,7.4l-8.3-10.9l-8.3-13.9h-16.1l-15.2-14.5l-1.6-9.5l-8.9-3.8
	l-8.7-20.6l-5.7-2.5l-2.6-17.6l-7.8-3.9l-4.8-8.3l-13.1-6.5h-4.8v5.2h-9.1l-6.1,11.8l-12.2,3.5v13.9l-9.1,1.9V78l-14.7,10v12.3
	l-14.9,21.7l-8.7-2.2l-11.1,12.2h-2.8l-10.3,13h-2.7l-5.8-4.4l-9.6-4.6v-24.4h-5.9V78.7h-10v32.9h-5.7V136h-9.3V93.6h-14.9v35.1
	h-8.5l0.3-0.2l-0.1-2.8l-1-5.1l0.9-0.8l-0.8-3.7l0.8-0.2l-0.9-5.7l-0.9-9.7l0.9-1l1.4,0l1.9-1.1l1.2-2.3l1-2.9v-3.1l-2.1-4.1
	l1.1-2.9l-1-2.6l-0.9-0.1l-1.2,2l-1.1-0.9l-2.3-4.8l-1.8-2h-0.8l-0.6-0.9l-1,0l-1.3-1.6l0.9-0.9l-0.6-1.4l0.1-1.9l-1-0.6l0.8-0.7
	l-0.1-1.8l3.6-1.4l-4.7,0.1l-0.2-0.5l2.4-2.4l-3.4,1.6l-1.4-0.9l0.2-3.3l-1.4,2.8l-1.4-0.2l-3-3.5l2.1,3.8l-1.5,0.4l-4.3-1.8l4,2.7
	l-0.4,0.7l-3.5,0.7l3.4,0.1l0.3,0.7l-2.7,1.1l2.7,0.1l0.6,2.1h0.6l0.4,0.8l-1.7,1.7l-1.7-2.1l-0.2-1.3l-1.9-2.1l-0.4-1.6l-4.2-12.2
	l-1.5-2.2l-0.3-1l0.5-1l0.8-0.2l1.1-1.2l-0.4-1l-0.1-1.3h-0.8l-0.6-0.3V42l0.3-1.2l0.7-1.2l0.9-1.3l-0.6-0.6l-0.2,0.5l-1.6,0.6
	l-0.3-1.3l-1.5,1.2l-0.6-0.5l-0.4,1.1l-0.4,1.5l0.8,0.9l-0.2,1h-1.4l-1.1,0.6l0.5,1.2l-0.5,0.2l0.9,1.2l0.9,1.7v2.6l0.9,1.3l1.2,5.7
	l0.9-1.3l2.6,11.7l-1,8h1.9l0.8,1.1l0.4,1.5l1.6,4.3l-1.5,1.6l-1.3,8.5l1,3.4l0.7,8.4l1,10.5l2.1,2.3v8l-2.6,7.2l-1.6,1.2l-5.6,1.5
	v1h-0.2v-24.9h-9.8v16.8h-17.3v-21.9h-12v21.9c-4.1,0-9,0-11.8,0v3.4h-4.3v-11.9h-1.5c-1.6-1.6-5.4-5.4-6.9-6.9c-3.4,0-9.2,0-14.4,0
	l-3.2-8.7c2.2-1.7,3.5-4.3,3.5-7.2c0-4.2-2.9-7.8-6.8-8.8l3.2-21.9c5.9-0.2,10.6-5,10.6-10.9c0-6-4.9-10.9-10.9-10.9
	c-3.4,0-6.5,1.6-8.5,4.1l-22.2-9.2c0.2-0.8,0.4-1.6,0.4-2.5c0-5-4.1-9.1-9.1-9.1c-5,0-9.1,4.1-9.1,9.1c0,0.9,0.1,1.7,0.3,2.5
	l-21.3,9.5c-2-2.6-5.1-4.3-8.7-4.3c-6,0-10.9,4.9-10.9,10.9c0,5.8,4.6,10.6,10.4,10.9l3.7,21.9c-3.9,1-6.9,4.6-6.9,8.9
	c0,3,1.5,5.7,3.7,7.4l-5.6,15.6h-2.1l-0.9-3.4c-1.8-1.8-5.6-5.6-7.4-7.4h-11.3l-4.6,4.6h-6.9v9.9l-5.5,5.5h-9.2l-3.1-3.1
	c-3.9,0-13.6,0-17.4,0l-3.2-3.2h-15.3v-4.8c-5.7,0-25.5,0-30.9,0v-6.3h-21.6V108h-2.6v3.3h-17.5l-2.2-2.2h-1.7l-3.1,3.1h-3.8
	l-2.9-2.9h-8.2l-2.2,2.2h-13.4c0-5.5,0-16.9,0-22.2l-1.9-1.9c0-1.4,0-4.3,0-5.7l-2-2v-5.3h-1v6l-2,2V87l-2.1,2.1l-1.5,4.8v13.5h-5.8
	l-2.7,3.6l-4.2-0.6l-1.7-1.7l-2.5,2.5h-13.2l-1.4-6h-17l-2.9-5l-2.6,5h-19.5l-1.5-6.5l-2.1,11.8h-3.1l-1-3.1h-7V103H772v8.2h-1.7
	v8.2h-1.9v6.9h-3.3l-5-5c-5.6,0-13.4,0-19,0v-4.8h-5.3v-8.7h-1.6v7.6c-1.1,1.1-3.6,3.6-4.7,4.7h-2.6v-3.5h-3l-5,5l-4.2-4.2h-9.5
	l-3.5,3.5c-2,0-7.1,0-9.1,0V96.9h-5V83.3h-5V69.9h-3.4v13.5c-5.2,0-16.3,0-21.4,0v-3.6h-4.1V66.5h-2.1v14.6h-5.5v37.6h-5.1l-3-3H634
	v5.5c-2.6,0-8.5,0-11,0l-5-5h-2.2v2.9h-5.3v-3.4c-2.1,0-7.6,0-9.8,0v-3.1H593v3.8h-5.6v4.2l-1.6-1.6h-2.6l-3.1-3.1v-13l24.3-2v-0.4
	h-31.8v3.9h5.7v12.3c-7.2,0-17.4,0-24.6,0l-3.3,3.3h-9.3v-8.2h-4.5v8.4h-12.7v-4.3h-2.6v4.1h-2.4l-4.3-4.3h-4.1v5.8h-13.9v-4.8h-4.1
	l-3.6,3.6h-9l-3.1,3.1c-2.9,0-7.5,0-10.5,0v-5.1h-2.5v3l-2.1,2.1l-5.5-5.5l-4,4h-3.4l-2.1-2.1h-5.5l-2.4,2.4v-2.7h-8.2v-2.1h-5v-5
	h-5.3V89.5h-3.4V69.9h-1.9V59.1h-14.9v9.3h-2.2v18.7h-4.1v18h-6.5v-6.5h-3.8v3.9l-5.8,5.8h-9.3v2.3h-6.3l-2.5,2.5
	c-2.8,0-10.8,0-13.7,0v7.9h-7c0-1.9,0-6.9,0-8.7h-6.5v-4.1c-4.2,0-34.4,0-37.7,0v-9.8h-1.2v-7.2h-5.3c0-1.8,0-6.9,0-8.7l-3.1-3.1
	v-9.9H282v10.4l-3.1,3.1v5.6l-3.9,4.9v10.9h-2.2V92.6l-1.4-1.4v-3.4h-2.2v3.1l-3.9,3.9v14.7h-2.1V66.7h-3.2V44.1h1.9
	c0-0.9,0-5.1,0-6h-2.6V16.6h-2.4V8.6h-1.5V0h-4.4v8.6h-1.7l0.1,8.2h-2.2v21.3h-3.4v6h2.4v22.6h-3.3v33h-12.2l-3.2,3.2h-6.2
	c0,3.1,0,10.8,0,13.7h-11.3v-4.5h-7v6.2h-5.5v-2.9l-3.3-3.3h-5.5v-3.6h-3.9v3.9l-10.4,0l-7.1-7.3V94.5h-1.3v10.7l-6.7,6.7l-10.5-9.6
	V91.7h-2.5v10.7l-10.9,10.9H96.9v-9.9h-2.2v7.7l-3.8-3.8h-7.1l-5.1,5.1h-8.3l-3.2-3.2H50.6l-4.1,4.1v-7.1l-8.8-8.8l-9.3,9.3v4.3H0
	v146.5h1200h132.9h302.4h23V127.2L1645.9,128.7z M1084.7,51.7l21-9.9c1.7,2.3,4.3,3.7,7.4,3.7c2.8,0,5.4-1.3,7.1-3.3l22,9.7
	c-0.3,1-0.4,2-0.4,3.1c0,1.3,0.2,2.5,0.6,3.6l-20.8,11.7c-2.2-2.1-5.1-3.4-8.4-3.4c-3.3,0-6.4,1.4-8.5,3.6L1084.5,59
	c0.5-1.2,0.8-2.6,0.8-4C1085.2,53.8,1085,52.8,1084.7,51.7z M1081.7,62.9l20.3,11.5c-0.6,1.4-0.9,2.9-0.9,4.5c0,0.7,0.1,1.5,0.2,2.2
	l-15.5,8.7c-1.4-1.2-3.2-2.1-5.1-2.3l-3.2-22.1C1079.1,64.9,1080.5,64,1081.7,62.9z M1102.3,123.3h-24.4l3-17.6
	c1.7-0.2,3.2-0.9,4.5-1.9l18.7,12.1c-1.2,1.8-1.9,3.9-1.9,6.2C1102.2,122.4,1102.2,122.8,1102.3,123.3z M1113.1,111.1
	c-2.7,0-5.1,1-7,2.6l-18-13.3c0.5-1.2,0.9-2.5,0.9-3.9c0-1.1-0.2-2.1-0.5-3.1l14.9-7.7c2.2,3.1,5.7,5.1,9.8,5.1
	c4.3,0,8.1-2.3,10.2-5.7l15.4,8.4c-0.3,0.9-0.5,1.9-0.5,3c0,1,0.2,2,0.5,2.9l-18.1,14.5C1118.6,112.2,1115.9,111.1,1113.1,111.1z
	 M1147.4,112.5v2.9h-7.9v13.3h-17.9c1.5-1.9,2.3-4.2,2.3-6.7c0-1.6-0.3-3.1-0.9-4.4l17.6-14.7c1.5,1.6,3.5,2.6,5.8,2.8l1.7,6.8
	C1147.9,112.5,1147.6,112.5,1147.4,112.5z M1146.3,87.5c-2.3,0.2-4.4,1.4-5.9,3l-15.6-9.1c0.2-0.8,0.3-1.7,0.3-2.6
	c0-1.6-0.3-3-0.8-4.4l20.4-12.1c1.1,1.1,2.4,2,3.8,2.6L1146.3,87.5z"/>
</svg>
